<?xml version="1.0" encoding="UTF-8"?>
<svg version="1.1" xmlns="http://www.w3.org/2000/svg" width="1024" height="1024">
<path d="M0 0 C337.92 0 675.84 0 1024 0 C1024 337.92 1024 675.84 1024 1024 C686.08 1024 348.16 1024 0 1024 C0 686.08 0 348.16 0 0 Z " fill="#36B0E9" transform="translate(0,0)"/>
<path d="M0 0 C337.92 0 675.84 0 1024 0 C1024 337.92 1024 675.84 1024 1024 C686.08 1024 348.16 1024 0 1024 C0 686.08 0 348.16 0 0 Z M471.73510742 16.40576172 C469.12452694 18.8818867 466.46412938 21.28924676 463.7890625 23.6953125 C455.31145203 31.4067907 447.31566707 39.61335911 439.25 47.75 C436.17486533 50.85194714 433.0962712 53.95040255 430.015625 57.046875 C429.32897766 57.74182068 428.64233032 58.43676636 427.93487549 59.152771 C424.74458802 62.35899193 421.52028052 65.46003906 418.09033203 68.40966797 C413.33960136 72.50853604 408.95167608 76.94156727 404.5390625 81.3984375 C403.66728363 82.27400299 402.79550476 83.14956848 401.89730835 84.05166626 C398.66622685 87.29695047 395.43981098 90.54684828 392.21350098 93.796875 C389.03307901 97.00011441 385.84894277 100.19963183 382.6640625 103.3984375 C381.82453033 104.24626801 380.98499817 105.09409851 380.12002563 105.96762085 C379.34516815 106.74578156 378.57031067 107.52394226 377.77197266 108.32568359 C377.08994781 109.01294525 376.40792297 109.70020691 375.70523071 110.40829468 C374 112 374 112 372 113 C372 113.66 372 114.32 372 115 C371.4470929 115.22726273 370.89418579 115.45452545 370.32452393 115.68867493 C367.31518077 117.38632454 365.24199394 119.52684242 362.80761719 121.98120117 C362.05060768 122.74018204 362.05060768 122.74018204 361.27830505 123.51449585 C359.61318124 125.18610213 357.95515212 126.86457259 356.296875 128.54296875 C355.13399634 129.7121239 353.97059697 130.88076134 352.80670166 132.04890442 C349.7411557 135.12775119 346.68121585 138.21210461 343.62286377 141.2980957 C338.74376595 146.22028414 333.85808016 151.1359079 328.96891022 156.04808998 C327.27163501 157.75548655 325.57787693 159.46631343 323.88446045 161.17753601 C319.04657798 166.05288333 314.17667026 170.81271187 308.95025635 175.27583313 C304.88842457 178.86678454 301.12592297 182.77444851 297.3125 186.625 C296.41055908 187.53072754 295.50861816 188.43645508 294.5793457 189.36962891 C291.71711436 192.24399569 288.85804198 195.1214694 286 198 C282.23225667 201.79475338 278.46084455 205.58581381 274.6875 209.375 C273.83518799 210.23561035 272.98287598 211.0962207 272.10473633 211.98291016 C267.87395544 216.23085021 263.57173153 220.29136455 259.02630615 224.19854736 C255.02639919 227.75459586 251.30323568 231.59651125 247.5390625 235.3984375 C246.66728363 236.27400299 245.79550476 237.14956848 244.89730835 238.05166626 C241.66622685 241.29695047 238.43981098 244.54684828 235.21350098 247.796875 C232.03307901 251.00011441 228.84894277 254.19963183 225.6640625 257.3984375 C224.82453033 258.24626801 223.98499817 259.09409851 223.12002563 259.96762085 C222.34516815 260.74578156 221.57031067 261.52394226 220.77197266 262.32568359 C220.08994781 263.01294525 219.40792297 263.70020691 218.70523071 264.40829468 C217 266 217 266 215 267 C215 267.66 215 268.32 215 269 C214.45277283 269.22158279 213.90554565 269.44316559 213.34173584 269.67146301 C210.26889361 271.41477859 207.98725842 273.75825341 205.53222656 276.2565918 C204.99829285 276.79183975 204.46435913 277.32708771 203.91424561 277.8785553 C202.15172889 279.64755697 200.39629932 281.42342834 198.640625 283.19921875 C197.41048519 284.43563437 196.1798252 285.67153265 194.94866943 286.90693665 C191.7055748 290.16333454 188.46808344 293.42524174 185.23217773 296.68878174 C180.06882097 301.89522477 174.89887337 307.0950992 169.72545624 312.29154396 C167.92847045 314.09865995 166.13499421 315.90920389 164.34185791 317.72013855 C155.26932998 326.85910359 155.26932998 326.85910359 151.04589844 330.45629883 C145.48977755 335.19511728 140.42966215 340.46073547 135.28692627 345.63790894 C133.33743245 347.6003164 131.38470075 349.55945154 129.43115234 351.51782227 C125.28460091 355.67572975 121.14200367 359.83756277 117 364 C112.19533921 368.82836341 107.38901607 373.65504776 102.57843018 378.47750854 C100.66657521 380.39578514 98.75778794 382.31707743 96.84912109 384.23852539 C91.6838833 389.42545455 86.53138084 394.53406684 80.95507812 399.28314209 C76.61001199 403.09877537 72.54634266 407.22261725 68.4375 411.2890625 C67.94732391 411.77391491 67.45714783 412.25876732 66.95211792 412.75831223 C64.3591154 415.32479285 61.76966426 417.89480238 59.18261719 420.46728516 C57.06777434 422.56880974 54.94591087 424.66282744 52.81738281 426.75048828 C50.21610093 429.30187749 47.62785315 431.8658621 45.04788208 434.43879318 C43.61164824 435.86524887 42.16331857 437.27949385 40.71459961 438.69326782 C26.77156325 452.68072775 20.50331024 466.75384703 20.47435057 486.33184308 C20.4843779 488.21615969 20.49478231 490.10047432 20.50552368 491.98478699 C20.50234368 494.00988497 20.4974127 496.03498083 20.49089086 498.06007081 C20.47810847 503.60245863 20.49016525 509.1445526 20.50641942 514.686921 C20.51960855 520.67263247 20.50966888 526.65831203 20.50265503 532.64402771 C20.49374575 543.00927599 20.49950114 553.37443804 20.51594925 563.73967552 C20.53319838 574.612213 20.54298909 585.48471178 20.54261398 596.35726357 C20.54259869 597.03444249 20.5425834 597.71162141 20.54256765 598.40932091 C20.54248583 601.15836815 20.5423546 603.90741538 20.54215602 606.65646261 C20.54034524 632.42674703 20.56021334 658.19697259 20.59101535 683.96723659 C20.61827087 706.85471252 20.63073745 729.74214665 20.62939453 752.62963867 C20.62931371 754.09972607 20.62923299 755.56981347 20.62915237 757.03990086 C20.62911167 757.76669063 20.62907097 758.49348039 20.62902904 759.24229408 C20.62882744 762.90098398 20.62864628 766.55967387 20.62848854 770.21836376 C20.62845511 770.94019446 20.62842169 771.66202516 20.62838725 772.40572952 C20.62765672 791.54218939 20.636736 810.67864404 20.64914167 829.81509954 C20.64958221 830.49590434 20.65002276 831.17670914 20.65047665 831.87814439 C20.65225306 834.61569179 20.65402987 837.35323917 20.65585856 840.09078653 C20.66217388 849.60854595 20.66519648 859.12630124 20.66608154 868.64406261 C20.66727634 880.90800501 20.67550296 893.17191535 20.69494446 905.43584367 C20.70417751 911.34880663 20.71027248 917.26172722 20.70775604 923.17469788 C20.70556426 928.58721476 20.71261318 933.99963794 20.72705309 939.41213528 C20.73067611 941.37019768 20.73094387 943.32826976 20.72751851 945.28633251 C20.7233765 947.9488582 20.73153939 950.61107853 20.74273109 953.27357769 C20.73862046 954.03263366 20.73450982 954.79168964 20.73027462 955.57374731 C20.86331837 972.91745118 28.97802521 988.79917859 40.6875 1001.25 C53.15211672 1013.12378626 68.83146338 1020.18457383 86.04721642 1020.12304783 C86.84429837 1020.12420167 87.64138032 1020.12535552 88.46261626 1020.12654433 C91.13797084 1020.12919471 93.81326544 1020.12470181 96.48861694 1020.12025452 C98.42420199 1020.12069054 100.35978698 1020.12156602 102.29537165 1020.12284368 C107.61775962 1020.12508251 112.94012751 1020.12107569 118.26251292 1020.11606562 C124.00070238 1020.11175256 129.73889068 1020.11320816 135.4770813 1020.1139679 C145.42008101 1020.11449259 155.36307417 1020.1113515 165.30607224 1020.10573006 C179.68203068 1020.09760765 194.05798595 1020.09499907 208.43394645 1020.09374207 C231.75723563 1020.09155272 255.08052131 1020.08490437 278.40380859 1020.07543945 C301.06201153 1020.06625505 323.72021354 1020.05917142 346.37841797 1020.05493164 C347.07684698 1020.05480011 347.77527599 1020.05466859 348.49486951 1020.05453308 C355.50878295 1020.05321456 362.5226964 1020.05193874 369.53660985 1020.05069422 C428.3577422 1020.04025319 487.17887108 1020.02260696 546 1020 C546.30414993 1005.27510788 546.53314734 990.55063309 546.67355824 975.82323456 C546.74049881 968.98427628 546.83168767 962.14727312 546.98071289 955.30957031 C547.12450056 948.70901494 547.19972133 942.10995414 547.23340416 935.50776672 C547.25740159 932.99091137 547.30426821 930.47416563 547.37449074 927.95817566 C548.35111933 915.59305983 548.35111933 915.59305983 544.74859238 904.20687866 C541.29849695 901.03048071 537.34845425 899.66542067 533 898 C519.40894227 887.84260617 511.40689982 873.47334697 508 857 C505.66291509 835.13181788 510.17527128 817.79327986 523.8671875 800.6640625 C534.54568868 789.06895178 550.91648977 780.79002586 566.64453125 779.76171875 C584.62707228 779.27857337 600.58527077 783.38187995 614.4375 795.5 C615.9749403 796.98297382 617.49780859 798.48133117 619 800 C619.55042969 800.51691406 620.10085938 801.03382813 620.66796875 801.56640625 C624.41380337 805.41266539 626.75849574 810.01305474 629.1875 814.75 C629.52088379 815.39332275 629.85426758 816.03664551 630.19775391 816.69946289 C634.80301036 826.0617847 636.56515302 835.29601562 636.5 845.6875 C636.49572998 846.73043213 636.49145996 847.77336426 636.48706055 848.84790039 C636.21747998 861.20764547 633.05117003 872.70490326 626 883 C625.45988281 883.80695312 624.91976562 884.61390625 624.36328125 885.4453125 C617.42503464 894.95812861 608.11494617 900.22003076 598 906 C598 943.62 598 981.24 598 1020 C641.9081391 1020.04409606 685.81625731 1020.08102243 729.72441223 1020.10213066 C734.90888553 1020.10463205 740.09335879 1020.1072207 745.27783203 1020.10986328 C746.30996164 1020.1103879 747.34209124 1020.11091252 748.40549751 1020.11145304 C765.11472005 1020.12015421 781.82392883 1020.13592261 798.53314321 1020.15430559 C815.6799988 1020.17301264 832.82684718 1020.18411843 849.97371256 1020.18817699 C860.5531113 1020.19092037 871.13247111 1020.19958334 881.71185787 1020.21583293 C888.9678209 1020.22640974 896.22376382 1020.22959904 903.47973399 1020.22700275 C907.66520026 1020.22572256 911.85059854 1020.22767681 916.0360527 1020.23841095 C919.87192191 1020.24817647 923.7076777 1020.24861356 927.54355223 1020.24179779 C929.58013815 1020.24055881 931.61672283 1020.24915492 933.6532892 1020.25816262 C953.04378863 1020.1951386 969.39709041 1013.875632 983.75 1000.8125 C999.90801616 983.40846767 1003.30736782 963.07026734 1003.26742554 940.28263855 C1003.27116464 938.2621191 1003.2757672 936.24160109 1003.28115618 934.22108537 C1003.29336919 928.68198903 1003.29312772 923.14295316 1003.29076743 917.60384643 C1003.29035884 911.62483981 1003.30140236 905.64585247 1003.31088257 899.66685486 C1003.32748368 887.95832113 1003.33301764 876.24980249 1003.33410732 864.54125877 C1003.33502732 855.02358464 1003.33914872 845.50591702 1003.34550858 835.98824501 C1003.34730373 833.24605714 1003.34908336 830.50386926 1003.35085833 827.76168138 C1003.35130043 827.07991921 1003.35174252 826.39815704 1003.35219802 825.69573541 C1003.36450149 806.52650574 1003.37239963 787.35727834 1003.37151146 768.18804455 C1003.3714803 767.46573102 1003.37144914 766.74341749 1003.37141704 765.99921568 C1003.37125083 762.33843831 1003.37105275 758.67766094 1003.37084763 755.01688357 C1003.37080774 754.2898721 1003.37076785 753.56286063 1003.37072675 752.81381851 C1003.37064587 751.34362546 1003.37056228 749.87343242 1003.37047596 748.40323938 C1003.36925046 725.52946164 1003.3842656 702.6557432 1003.41162109 679.78198242 C1003.44235981 654.06884684 1003.45955255 628.35575022 1003.45769465 602.64259511 C1003.45754539 599.89946417 1003.45744798 597.15633323 1003.45738602 594.41320229 C1003.45736271 593.73780005 1003.4573394 593.06239782 1003.45731538 592.36652885 C1003.45725391 581.51103225 1003.4700099 570.65558725 1003.48725055 559.80010598 C1003.50422589 548.8857757 1003.50582358 537.97152431 1003.4930319 527.05718824 C1003.48650207 521.14773758 1003.48638599 515.23847344 1003.5037384 509.32904053 C1003.51947272 503.91492447 1003.5166015 498.50114278 1003.49917014 493.08703486 C1003.49610111 491.13287434 1003.49972892 489.17868884 1003.51089029 487.22455778 C1003.60727651 469.1458918 1000.41307784 453.46290275 987.6751709 439.68713379 C985.94193789 437.94152325 984.13417677 436.34914974 982.26367188 434.75195312 C978.24013326 431.25570017 974.4610339 427.57430179 970.71875 423.78125 C970.06096558 423.11967896 969.40318115 422.45810791 968.72546387 421.77648926 C965.94933442 418.98421856 963.17928463 416.18594584 960.40869141 413.38818359 C958.3683292 411.32959102 956.32485669 409.27412097 954.28125 407.21875 C953.66954956 406.59875122 953.05784912 405.97875244 952.4276123 405.33996582 C949.38626202 402.28170883 946.29283793 399.34612895 943.02734375 396.52734375 C938.92081234 392.97911633 935.09316587 389.20392687 931.28125 385.34375 C930.57907349 384.63778687 929.87689697 383.93182373 929.15344238 383.20446777 C926.18616234 380.22102625 923.22494637 377.2315929 920.26318359 374.24267578 C918.08381535 372.04509421 915.90135053 369.85062062 913.71875 367.65625 C913.063302 366.99250366 912.407854 366.32875732 911.73254395 365.64489746 C907.94165898 361.83426956 904.02943355 358.24807311 899.96130371 354.7364502 C896.74338161 351.88744653 893.73618641 348.83962101 890.71875 345.78125 C890.06096558 345.11967896 889.40318115 344.45810791 888.72546387 343.77648926 C885.94933442 340.98421856 883.17928463 338.18594584 880.40869141 335.38818359 C878.3683292 333.32959102 876.32485669 331.27412097 874.28125 329.21875 C873.66954956 328.59875122 873.05784912 327.97875244 872.4276123 327.33996582 C868.71416752 323.6058782 864.86726121 320.10009609 860.88269043 316.65783691 C858.22033892 314.31345541 855.74303367 311.83722477 853.25 309.3125 C852.49638184 308.5532019 852.49638184 308.5532019 851.72753906 307.77856445 C849.6204205 305.65540351 847.51945787 303.52619158 845.41796875 301.39746094 C843.86414002 299.82531785 842.30713323 298.25636916 840.75 296.6875 C839.83734375 295.76324219 838.9246875 294.83898437 837.984375 293.88671875 C835.7839225 291.71002639 833.49430795 289.67147327 831.15039062 287.65039062 C826.85060311 283.92319681 822.84213629 279.95209078 818.84375 275.90625 C818.0971814 275.15589478 817.35061279 274.40553955 816.5814209 273.63244629 C813.42298888 270.45783496 810.27060721 267.27724084 807.11767578 264.09716797 C804.79930255 261.76059639 802.4778448 259.42712001 800.15625 257.09375 C799.45705444 256.3862561 798.75785889 255.67876221 798.03747559 254.9498291 C794.11291433 251.00604244 790.07848321 247.27341415 785.86535645 243.64050293 C783.13486078 241.23914626 780.57931611 238.68582564 778.03125 236.09375 C777.50664185 235.56535522 776.98203369 235.03696045 776.44152832 234.49255371 C774.23883885 232.27380416 772.04229163 230.04901227 769.84521484 227.82470703 C768.22187975 226.1830727 766.5953788 224.54461981 764.96875 222.90625 C764.48829224 222.4174939 764.00783447 221.92873779 763.51281738 221.4251709 C760.80519518 218.69868346 758.01869493 216.12041937 755.109375 213.609375 C750.97861264 210.0304255 747.12017748 206.23128046 743.28125 202.34375 C742.57907349 201.63778687 741.87689697 200.93182373 741.15344238 200.20446777 C738.18616234 197.22102625 735.22494637 194.2315929 732.26318359 191.24267578 C730.08381535 189.04509421 727.90135053 186.85062062 725.71875 184.65625 C725.063302 183.99250366 724.407854 183.32875732 723.73254395 182.64489746 C719.91562828 178.80810329 715.97723361 175.19158431 711.8807373 171.65588379 C709.14611122 169.24819879 706.58443667 166.69103463 704.03125 164.09375 C703.50664185 163.56535522 702.98203369 163.03696045 702.44152832 162.49255371 C700.23883885 160.27380416 698.04229163 158.04901227 695.84521484 155.82470703 C688.6240675 148.44933819 688.6240675 148.44933819 681 141.5 C674.57318587 136.02282958 668.77521568 129.82819858 662.84521484 123.82470703 C661.22187975 122.1830727 659.5953788 120.54461981 657.96875 118.90625 C657.48829224 118.4174939 657.00783447 117.92873779 656.51281738 117.4251709 C653.80519518 114.69868346 651.01869493 112.12041937 648.109375 109.609375 C643.97861264 106.0304255 640.12017748 102.23128046 636.28125 98.34375 C635.57907349 97.63778687 634.87689697 96.93182373 634.15344238 96.20446777 C631.18616234 93.22102625 628.22494637 90.2315929 625.26318359 87.24267578 C623.08381535 85.04509421 620.90135053 82.85062062 618.71875 80.65625 C618.063302 79.99250366 617.407854 79.32875732 616.73254395 78.64489746 C613.61609362 75.51221666 610.46036785 72.4909081 607.109375 69.609375 C602.35041915 65.50063959 597.95287796 61.05956206 593.53125 56.59375 C592.65150513 55.71021851 591.77176025 54.82668701 590.86535645 53.91638184 C587.60343055 50.6402768 584.34607436 47.3596502 581.08905029 44.07867432 C577.8851274 40.85169462 574.67730884 37.6286192 571.46875 34.40625 C570.63831177 33.56751343 569.80787354 32.72877686 568.95227051 31.86462402 C564.13574956 27.02807596 559.19709068 22.42429916 554 18 C553.14792969 17.25492188 552.29585937 16.50984375 551.41796875 15.7421875 C539.82220921 6.03505429 526.60923978 1.44383524 511.5625 1.625 C510.60279297 1.61339844 509.64308594 1.60179688 508.65429688 1.58984375 C494.25305754 1.64803058 482.1240823 6.4911838 471.73510742 16.40576172 Z " fill="#FEFEFE" transform="translate(0,0)"/>
<path d="M0 0 C11.2347926 4.28288973 20.44499645 13.75133528 29 22 C29.84401367 22.80026611 29.84401367 22.80026611 30.70507812 23.61669922 C34.94313522 27.72130162 38.50379954 32.03847983 41.875 36.875 C42.38820801 37.60968506 42.90141602 38.34437012 43.43017578 39.10131836 C51.93684805 51.52793929 58.29558193 64.71467491 63 79 C63.22671387 79.68562012 63.45342773 80.37124023 63.68701172 81.07763672 C76.41662685 120.26595224 74.98952907 162.79474485 69.1328125 203.12109375 C65.84033137 225.95126938 64.69573556 250.38378586 70 273 C70.16628906 273.74701172 70.33257813 274.49402344 70.50390625 275.26367188 C74.8858298 294.49544744 83.10556425 311.71573335 99 324 C100.98887745 325.02194251 102.98776726 326.02484904 105 327 C104.99214478 325.67947632 104.99214478 325.67947632 104.98413086 324.33227539 C104.7254389 274.24099773 108.24537859 220.10524764 145.375 182.375 C152.89700997 175 152.89700997 175 156 175 C155.9685791 175.93344238 155.9685791 175.93344238 155.93652344 176.88574219 C155.157476 203.75794794 160.49333311 226.56056617 173.07568359 250.25292969 C173.8872739 251.78693397 174.67419779 253.33393558 175.45703125 254.8828125 C182.46662721 268.41719086 191.92589657 280.42440291 201.53125 292.18408203 C203.43423505 294.53687505 205.28957125 296.92477466 207.14428711 299.31567383 C211.27845119 304.6425141 215.52303198 309.84030858 219.9375 314.9375 C226.16402734 322.1338067 232.14864919 329.49593321 238 337 C238.48919922 337.6202002 238.97839844 338.24040039 239.48242188 338.87939453 C253.60692404 356.88203856 261.11528851 375.74679304 259 399 C254.81178819 430.47441174 233.67132601 454.69736152 209.32055664 473.48120117 C200.52187411 480.13610744 191.32834905 486.12136284 182 492 C166.6133815 501.71183052 151.49054603 511.72996535 138 524 C137.49130371 524.45810059 136.98260742 524.91620117 136.45849609 525.38818359 C121.43335408 539.08939867 107.47889234 558.42736652 105.81420898 579.33325195 C105.73363547 581.70536572 105.72292402 584.06424198 105.75 586.4375 C105.75386719 587.26644775 105.75773437 588.09539551 105.76171875 588.94946289 C105.83511368 594.14368342 106.24349921 599.04283378 107.5625 604.08984375 C108 606 108 606 108 610 C106.87464844 609.70996094 106.87464844 609.70996094 105.7265625 609.4140625 C104.19128906 609.02347656 104.19128906 609.02347656 102.625 608.625 C101.62726563 608.36976563 100.62953125 608.11453125 99.6015625 607.8515625 C98.41304687 607.57054687 97.22453125 607.28953125 96 607 C95.28432861 606.82355957 94.56865723 606.64711914 93.83129883 606.46533203 C69.06268553 600.8513484 43.46115176 605.34515387 21.68359375 617.9140625 C14.85387289 622.29275965 8.77887021 627.31633359 3 633 C1.84177734 634.13888672 1.84177734 634.13888672 0.66015625 635.30078125 C-15.15628333 651.8201737 -22.61309005 673.6846044 -22.4375 696.25 C-22.43412628 696.93353546 -22.43075256 697.61707092 -22.42727661 698.32131958 C-22.35259173 708.76666493 -21.72987104 718.17470549 -18 728 C-17.75330566 728.6595166 -17.50661133 729.3190332 -17.25244141 729.99853516 C-11.6115647 744.77423859 -3.22363845 757.22164065 8.265625 768.15625 C10 770 10 770 10 772 C-34.1525279 778.71886294 -77.91246942 769.18198779 -119 753 C-120.07918701 752.57533447 -120.07918701 752.57533447 -121.18017578 752.14208984 C-145.68859434 742.32817613 -168.62850149 727.70049244 -189 711 C-189.55751953 710.54399414 -190.11503906 710.08798828 -190.68945312 709.61816406 C-205.73058835 697.21713951 -220.13436452 683.49900994 -232 668 C-233.29160416 666.43744833 -234.58327207 664.87494935 -235.875 663.3125 C-266.69284552 624.59107183 -288.1136333 575.98976167 -287 526 C-282.77446689 527.33271672 -278.83253034 528.95672473 -274.8125 530.8125 C-248.61351338 542.22150984 -219.10805025 542.27650991 -191 544 C-191.74443359 542.26943359 -191.74443359 542.26943359 -192.50390625 540.50390625 C-219.15231639 477.12890161 -220.41678287 405.95502012 -195 342 C-180.49011418 307.03786676 -160.33186613 274.47875446 -135.49609375 245.89453125 C-133.17838314 243.20685744 -130.95919807 240.46442495 -128.75 237.6875 C-123.66671124 231.43395771 -118.11373395 225.63903491 -112.57421875 219.79296875 C-109.76489628 216.82549834 -107.01927166 213.81175811 -104.3125 210.75 C-100.47311982 206.43886233 -96.41625967 202.38492037 -92.31103516 198.33032227 C-88.89774005 194.94392511 -85.68976048 191.45165577 -82.57421875 187.79296875 C-80.9523281 185.94570371 -79.25339795 184.22243286 -77.5 182.5 C-73.78763855 178.83691768 -70.38897036 174.96156653 -67 171 C-65.81470703 169.64841797 -65.81470703 169.64841797 -64.60546875 168.26953125 C-52.67012681 154.55392709 -41.79970985 139.92735818 -33 124 C-32.58766113 123.2575 -32.17532227 122.515 -31.75048828 121.75 C-10.63718268 83.44521877 -3.19193907 43.1353056 0 0 Z " fill="#FEFEFE" transform="translate(503,149)"/>
<path d="M0 0 C-1.32120828 2.93230193 -2.74638197 4.98664899 -5.0390625 7.234375 C-5.90917969 8.09482422 -5.90917969 8.09482422 -6.796875 8.97265625 C-7.40015625 9.55917969 -8.0034375 10.14570313 -8.625 10.75 C-9.23601562 11.35199219 -9.84703125 11.95398438 -10.4765625 12.57421875 C-11.97988624 14.05405305 -13.48934856 15.52764676 -15 17 C-15.99 16.67 -16.98 16.34 -18 16 C-15.38308836 13.32529045 -12.75518292 10.66165519 -10.125 8 C-9.00544922 6.8553125 -9.00544922 6.8553125 -7.86328125 5.6875 C-7.14785156 4.965625 -6.43242187 4.24375 -5.6953125 3.5 C-5.03547363 2.8296875 -4.37563477 2.159375 -3.69580078 1.46875 C-2 0 -2 0 0 0 Z " fill="#47B3E8" transform="translate(155,328)"/>
<path d="M0 0 C0.33 0.66 0.66 1.32 1 2 C-3.60136502 7.53601728 -8.46398272 12.39863498 -14 17 C-14.66 16.67 -15.32 16.34 -16 16 C-10.72 10.72 -5.44 5.44 0 0 Z " fill="#4AB4E7" transform="translate(85,395)"/>
<path d="M0 0 C0.99 0.33 1.98 0.66 3 1 C-0.96 4.96 -4.92 8.92 -9 13 C-9.66 12.34 -10.32 11.68 -11 11 C-7.37 7.37 -3.74 3.74 0 0 Z " fill="#44B2E8" transform="translate(464,23)"/>
<path d="M0 0 C0.33 0.99 0.66 1.98 1 3 C-1.97 5.475 -1.97 5.475 -5 8 C-5.66 7.67 -6.32 7.34 -7 7 C-4.69 4.69 -2.38 2.38 0 0 Z " fill="#49B3E8" transform="translate(212,270)"/>
<path d="M0 0 C0.66 0 1.32 0 2 0 C0.50902342 3.7952131 -1.75700849 5.61042731 -5 8 C-5.66 7.67 -6.32 7.34 -7 7 C-5.37660195 5.29115995 -3.70680947 3.62553283 -2 2 C-1.34 2 -0.68 2 0 2 C0 1.34 0 0.68 0 0 Z " fill="#4CB4E6" transform="translate(372,113)"/>
</svg>
