<?xml version="1.0" encoding="UTF-8"?>
<svg version="1.1" xmlns="http://www.w3.org/2000/svg" width="968" height="1003">
<path d="M0 0 C3.62872207 3.13003804 7.07424815 6.38982433 10.40234375 9.8359375 C12.13520705 11.57287813 13.94563833 13.15845328 15.8125 14.75 C23.193582 21.12782814 29.98103333 28.13225012 36.32421875 35.53515625 C41.37023479 41.23885528 46.89789261 46.4167079 52.65625 51.38671875 C61.88953764 59.49582365 70.62554153 67.96205868 78.92553711 77.0222168 C85.1031784 83.72041149 91.78497707 89.79851488 98.58349609 95.85498047 C100.03723296 97.15063 101.48741487 98.45026476 102.9375 99.75 C103.75992188 100.47703125 104.58234375 101.2040625 105.4296875 101.953125 C107.54912875 104.00338568 109.43839965 106.05558402 111.3515625 108.2890625 C115.15690897 112.69992222 119.29660359 116.66435557 123.5625 120.625 C124.28308594 121.30175781 125.00367188 121.97851562 125.74609375 122.67578125 C129.06230306 125.77610713 132.40515332 128.81829587 135.875 131.74609375 C138.32899561 133.82708203 140.50400045 135.95364723 142.5625 138.4375 C147.56796468 144.30136285 153.0010775 149.51173411 158.82421875 154.5546875 C165.24107546 160.1316415 171.50624483 165.66169374 176.9921875 172.16796875 C184.39053023 180.50157367 192.51843416 188.35202335 201.0625 195.5 C205.83896124 199.50666263 210.11174833 203.57881467 214.15234375 208.328125 C218.97298034 213.8092578 224.19934276 218.91811646 229.73657227 223.66967773 C234.00858953 227.39847407 238.01627136 231.34246393 242 235.375 C242.72437256 236.10315918 243.44874512 236.83131836 244.19506836 237.58154297 C247.25792424 240.66056951 250.31472311 243.74558323 253.37207031 246.83007812 C255.62094117 249.09715458 257.87290238 251.36112966 260.125 253.625 C260.80232178 254.31062012 261.47964355 254.99624023 262.17749023 255.70263672 C266.04824874 259.59293728 270.03464003 263.26747044 274.18945312 266.85180664 C276.92201209 269.25633031 279.48062332 271.81156957 282.03125 274.40625 C282.81816223 275.19884216 282.81816223 275.19884216 283.62097168 276.00744629 C285.82366115 278.22619584 288.02020837 280.45098773 290.21728516 282.67529297 C297.35526408 289.97856208 297.35526408 289.97856208 304.90625 296.84375 C312.40903896 303.23790626 319.15144123 310.53904658 326.08105469 317.5390625 C328.05191341 319.52816103 330.02589005 321.51412897 332 323.5 C332.58982666 324.098125 333.17965332 324.69625 333.78735352 325.3125 C336.77765067 328.31999965 339.8247882 331.20020696 343.03515625 333.97265625 C347.06312809 337.45455276 350.82359162 341.14962067 354.5625 344.9375 C355.24248047 345.62126709 355.92246094 346.30503418 356.62304688 347.00952148 C359.49475143 349.89737773 362.36038438 352.79123075 365.2265625 355.68457031 C367.33642787 357.81265725 369.44939645 359.93762917 371.5625 362.0625 C372.51286133 363.02530884 372.51286133 363.02530884 373.48242188 364.00756836 C377.21942071 367.76466386 381.08368229 371.29294022 385.09350586 374.75585938 C388.31344961 377.60809473 391.32373581 380.65776624 394.34375 383.71875 C395.00153442 384.38032104 395.65931885 385.04189209 396.33703613 385.72351074 C399.11316558 388.51578144 401.88321537 391.31405416 404.65380859 394.11181641 C406.6941708 396.17040898 408.73764331 398.22587903 410.78125 400.28125 C411.39295044 400.90124878 412.00465088 401.52124756 412.6348877 402.16003418 C417.51025504 407.06250342 422.62503779 411.64233454 427.94128418 416.06188965 C432.23681424 419.70667003 434.75566451 424.12834902 437.3125 429.0625 C437.64185547 429.6805249 437.97121094 430.2985498 438.31054688 430.93530273 C444.5345291 443.60123383 444.49581072 457.16937294 444.4367218 470.92564392 C444.43946678 472.86569469 444.4435226 474.80574396 444.44876546 476.74578959 C444.45929703 482.04399832 444.45125928 487.34203697 444.44001496 492.64023817 C444.43113967 498.36699277 444.43962609 504.09372592 444.44587708 509.82048035 C444.45534792 521.02649924 444.4487801 532.23245358 444.43661413 543.43846767 C444.42296647 556.49772503 444.42463446 569.55696716 444.42674746 582.61622984 C444.43003112 606.62713916 444.41713883 630.63801561 444.39690243 654.64891535 C444.37853655 676.54321453 444.37272006 698.43748105 444.37817383 720.33178711 C444.37852026 721.73757372 444.37886636 723.14336033 444.37921212 724.54914694 C444.37946861 725.5916644 444.37946861 725.5916644 444.37973029 726.65524282 C444.3805839 730.15423799 444.38140768 733.65323317 444.38219929 737.15222836 C444.38235637 737.8426076 444.38251345 738.53298684 444.38267529 739.24428666 C444.38667029 757.56704899 444.38113761 775.88980788 444.372688 794.21256834 C444.37148075 796.84052471 444.37027476 799.46848108 444.36907005 802.09643745 C444.36816475 804.03577443 444.36816475 804.03577443 444.36724115 806.01428993 C444.36336782 815.10948813 444.36375337 824.20468045 444.3656559 833.29987907 C444.36778191 844.39008809 444.36252309 855.48026577 444.34804235 866.57046597 C444.3408176 872.22495448 444.3367049 877.87939743 444.34128571 883.53388977 C444.34538253 888.71718665 444.34013895 893.90038976 444.32765963 899.08367247 C444.32474836 900.95160862 444.32514005 902.8195537 444.32930271 904.68748748 C444.37829254 928.88090339 441.75353141 952.79468331 423.91015625 970.80859375 C409.58982799 984.34317012 392.82755685 988.81829112 373.59447193 988.75726891 C372.12496017 988.75996483 370.65544979 988.76353409 369.18594202 988.76789337 C365.14762721 988.77733455 361.10940281 988.77435618 357.0710836 988.76933783 C352.67765179 988.76606833 348.28423919 988.77435614 343.89081353 988.78115618 C336.19052363 988.79146156 328.49025888 988.79429904 320.78996277 988.79224396 C309.3391584 988.78919538 297.88838188 988.79751477 286.43758293 988.80799321 C264.79672904 988.82734291 243.15588461 988.83296179 221.51502309 988.83410732 C204.8038745 988.83502613 188.09272964 988.83914136 171.38158226 988.84550858 C166.57265908 988.84730364 161.76373589 988.84908327 156.95481271 988.85085833 C155.75932654 988.85130043 154.56384037 988.85174252 153.33212735 988.85219802 C119.70167276 988.86450777 86.07121946 988.87239901 52.44076252 988.87151146 C51.17261562 988.8714803 49.90446872 988.87144914 48.59789312 988.87141704 C42.17028276 988.87125083 35.74267239 988.87105274 29.31506202 988.87084763 C27.40021541 988.87078779 27.40021541 988.87078779 25.44668502 988.87072675 C22.86516031 988.87064587 20.2836356 988.87056228 17.70211089 988.87047596 C-22.46480188 988.86925038 -62.63168088 988.88426454 -102.79858398 988.91162109 C-147.91773253 988.94233776 -193.03685889 988.95955385 -238.15601856 988.95769465 C-242.96651351 988.95754539 -247.77700847 988.95744797 -252.58750343 988.95738602 C-253.77198412 988.95736271 -254.95646481 988.9573394 -256.17683885 988.95731538 C-275.24353966 988.95725382 -294.31021117 988.97002906 -313.37690326 988.98725055 C-332.53720881 989.00419874 -351.69747147 989.00618723 -370.85778036 988.9930319 C-382.24157864 988.98563739 -393.62524667 988.98931575 -405.00903117 989.00891658 C-412.6147025 989.02090607 -420.22027938 989.01833696 -427.82594636 989.00397559 C-432.15838911 988.99620394 -436.49057961 988.9946857 -440.82300469 989.01089029 C-444.77053245 989.02552574 -448.71759964 989.02148516 -452.66510743 989.00304256 C-454.07832192 988.9996221 -455.49157316 989.0027837 -456.90475005 989.01364497 C-475.23585574 989.14500776 -490.29375316 983.540917 -503.62890625 970.8671875 C-520.60142446 953.46389472 -524.40780258 935.18457495 -524.31845093 911.83274841 C-524.32191222 909.85429901 -524.32667994 907.87585154 -524.33263266 905.89740807 C-524.34510732 900.4885401 -524.33898838 895.0798318 -524.32967401 889.67096341 C-524.3228694 883.82699788 -524.33337171 877.98305926 -524.34161377 872.13909912 C-524.35493797 860.70200895 -524.35207927 849.26497791 -524.34337585 837.82788544 C-524.33659489 828.53147764 -524.33568437 819.2350864 -524.3389473 809.93867683 C-524.33917645 809.27725184 -524.33940561 808.61582684 -524.33964171 807.93435867 C-524.34057578 805.24917288 -524.34153098 802.56398709 -524.342521 799.87880132 C-524.35168976 774.71042181 -524.34339049 749.5420745 -524.32723031 724.37369995 C-524.31299275 702.02979639 -524.31426971 679.68594413 -524.32861328 657.34204102 C-524.34468838 632.21706371 -524.35104107 607.09211484 -524.34177649 581.9671331 C-524.34081439 579.28725788 -524.33987586 576.60738264 -524.3389473 573.9275074 C-524.33848447 572.60902197 -524.33802164 571.29053654 -524.33754479 569.932097 C-524.33495631 560.64814409 -524.33932283 551.36420941 -524.34638596 542.08025932 C-524.35480581 530.76448802 -524.35251048 519.44877914 -524.33654372 508.13301497 C-524.32866786 502.36141863 -524.32555788 496.5899263 -524.33549118 490.81833076 C-524.34445249 485.53149055 -524.33948142 480.24485047 -524.32355852 474.95802832 C-524.32021685 473.04906595 -524.32189093 471.14008655 -524.32918589 469.23113518 C-524.42252991 442.76783376 -515.28292053 426.78840582 -496.9140625 408.2109375 C-494.3487668 405.63518472 -491.77695981 403.06623237 -489.20019531 400.50195312 C-486.56863867 397.88111367 -483.94794002 395.24975818 -481.328125 392.6171875 C-479.62824497 390.91862929 -477.92774453 389.2206917 -476.2265625 387.5234375 C-475.45849274 386.75131927 -474.69042297 385.97920105 -473.89907837 385.1836853 C-469.93297282 381.25087664 -465.88255863 377.58392983 -461.52392578 374.08862305 C-455.73267004 369.42648085 -450.49810907 364.33259577 -445.265625 359.05859375 C-444.28957238 358.08134366 -443.31314388 357.10446887 -442.33636475 356.12794495 C-440.3098242 354.0998569 -438.28663336 352.06850961 -436.26611328 350.03442383 C-433.69734295 347.44860933 -431.12198329 344.86948232 -428.54430008 342.29255581 C-426.53466788 340.28264975 -424.52766651 338.2701336 -422.52150726 336.25676155 C-421.11843484 334.84903723 -419.71393191 333.44273914 -418.30938721 332.03648376 C-413.824569 327.51858374 -409.46413596 322.94988993 -405.32243347 318.11418152 C-403.6184561 316.12814477 -401.84011437 314.23524691 -400 312.375 C-399.41347656 311.77429688 -398.82695312 311.17359375 -398.22265625 310.5546875 C-396.34681175 308.86803074 -394.51883472 307.48198061 -392.46875 306.03125 C-386.81330534 301.84683689 -381.97076153 296.7952081 -377.03735352 291.80566406 C-375.3802218 290.13027932 -373.71523144 288.463033 -372.04882812 286.796875 C-367.07801224 281.80924888 -362.21003152 276.77962251 -357.63012695 271.42626953 C-354.18516028 267.50577522 -350.48942441 263.82631529 -346.8125 260.125 C-345.63494141 258.91650391 -345.63494141 258.91650391 -344.43359375 257.68359375 C-343.66917969 256.91402344 -342.90476562 256.14445312 -342.1171875 255.3515625 C-341.43382324 254.65885254 -340.75045898 253.96614258 -340.04638672 253.25244141 C-337.9375 251.5 -337.9375 251.5 -335.30126953 250.50927734 C-332.39246407 249.2672817 -332.17028467 248.31736643 -330.9375 245.5 C-329.34594727 243.92749023 -329.34594727 243.92749023 -327.44140625 242.37109375 C-322.31709327 238.03086657 -317.61047512 233.31938647 -312.875 228.5625 C-312.01583984 227.70720703 -311.15667969 226.85191406 -310.27148438 225.97070312 C-305.81425751 221.50666613 -301.53619007 216.96514697 -297.42407227 212.18237305 C-295.56242935 210.07552769 -293.56193696 208.21463925 -291.4375 206.375 C-270.92822242 188.28860569 -270.92822242 188.28860569 -252.3125 168.3125 C-246.89278422 161.91613493 -240.33614496 156.49279984 -234.13818359 150.86669922 C-226.9443031 144.31571734 -219.99950026 137.62943179 -213.375 130.5 C-207.258521 123.92012805 -201.04970297 117.4390936 -194.72756958 111.05688477 C-193.74958424 110.06776966 -192.77433648 109.07593959 -191.80197144 108.08129883 C-190.43413929 106.68347541 -189.05514515 105.29660146 -187.67578125 103.91015625 C-186.88212158 103.10715088 -186.08846191 102.30414551 -185.27075195 101.47680664 C-182.9375 99.5 -182.9375 99.5 -180.20385742 98.41186523 C-179.45595947 98.11094971 -178.70806152 97.81003418 -177.9375 97.5 C-177.6075 96.51 -177.2775 95.52 -176.9375 94.5 C-175.58203125 93.16796875 -175.58203125 93.16796875 -173.75 91.6875 C-165.03351027 84.29264409 -156.90793319 75.99594778 -149.50390625 67.29296875 C-144.76569239 61.8694272 -139.48034331 57.08302778 -134.05834961 52.36254883 C-125.06191878 44.46180394 -116.41643011 36.22823884 -108.37817383 27.35400391 C-99.94223566 18.05550995 -91.19439385 9.14900881 -81.30859375 1.38671875 C-79.28245927 -0.22551017 -77.43583848 -1.90576731 -75.5625 -3.6875 C-54.18389203 -22.09258456 -20.44305952 -16.36561869 0 0 Z " fill="#35B0E9" transform="translate(523.9375,14.5)"/>
<path d="M0 0 C11.6317177 3.4081272 20.40286257 12.82404798 29 21 C29.64710938 21.58265625 30.29421875 22.1653125 30.9609375 22.765625 C56.81288348 46.7970114 70.20654752 88.54803091 72.16818237 122.94943237 C72.38215709 129.20564248 72.38518852 135.45844615 72.33618164 141.7175293 C72.31254719 144.9310831 72.31565677 148.14380257 72.32226562 151.35742188 C72.3007947 167.39214168 71.40397566 183.26058619 68.75610352 199.09179688 C63.86795754 229.17847625 64.53293786 262.88417757 77 291 C77.4125 291.95132812 77.825 292.90265625 78.25 293.8828125 C83.6434677 305.48586471 92.10067426 316.07477095 104 321 C103.98952637 319.85748779 103.97905273 318.71497559 103.96826172 317.5378418 C103.93140014 313.20079829 103.90886526 308.86376781 103.89013672 304.52661133 C103.88022681 302.66786351 103.86669502 300.80913061 103.84912109 298.95043945 C103.69182713 281.85628662 104.78548475 265.21142275 108.25 248.4375 C108.46760986 247.38159668 108.68521973 246.32569336 108.90942383 245.23779297 C114.84813705 217.46761995 127.84713386 189.59617827 151 172 C151.99 172 152.98 172 154 172 C154.02187378 173.01030273 154.02187378 173.01030273 154.04418945 174.04101562 C155.12393772 218.81813817 171.51551722 253.93168881 199.84765625 288.1640625 C202.80557984 291.74163016 205.6594921 295.39154633 208.5 299.0625 C212.30272432 303.9587413 216.27781113 308.66076308 220.375 313.3125 C233.36171871 328.13429853 247.68535765 344.62064115 253 364 C253.22300781 364.80953125 253.44601562 365.6190625 253.67578125 366.453125 C258.39603796 387.38922957 253.74826115 408.56542483 243.29296875 427.01171875 C227.86919841 451.33256925 205.38834481 467.85598117 181.49609375 483.1171875 C163.55465026 494.58524567 146.45309402 506.29904772 131 521 C130.33226562 521.61488281 129.66453125 522.22976563 128.9765625 522.86328125 C116.2648776 534.91349838 105.31365909 553.41818968 104.796875 571.203125 C104.49603023 581.19389338 104.49603023 581.19389338 106 591 C106.06548492 592.58211573 106.08578381 594.16670081 106.0625 595.75 C106.05347656 596.54921875 106.04445313 597.3484375 106.03515625 598.171875 C106.01775391 599.07679688 106.01775391 599.07679688 106 600 C104.47880907 599.73118248 102.95808147 599.45974384 101.4375 599.1875 C100.42558594 599.00832031 99.41367187 598.82914063 98.37109375 598.64453125 C96.10352678 598.21098716 93.84489259 597.72813201 91.59765625 597.19921875 C67.29959959 591.63256299 43.2672469 596.05588747 21.62109375 608.33984375 C17.10362742 611.20113017 13.06155206 614.53378945 9 618 C8.24976563 618.59296875 7.49953125 619.1859375 6.7265625 619.796875 C-8.45450992 632.26133446 -18.92257272 652.51719452 -21 672 C-21.30144359 676.93898261 -21.40529985 681.86493163 -21.4375 686.8125 C-21.44773193 688.02824707 -21.45796387 689.24399414 -21.46850586 690.49658203 C-21.24178441 713.78071584 -10.4296564 736.51120567 5.90625 752.9140625 C6.4528125 753.43742188 6.999375 753.96078125 7.5625 754.5 C10 757 10 757 10 760 C-46.94935248 770.84749571 -112.39300399 750.19582759 -160.125 719.125 C-186.60770189 700.94339468 -212.55235477 679.57131328 -231.76904297 653.63671875 C-232.98323915 652.02228575 -234.23415502 650.44598945 -235.50390625 648.875 C-264.95731375 612.00062441 -283.29875099 565.30117703 -282 518 C-276.06051379 519.70333455 -270.34245512 521.59966857 -264.625 523.9375 C-245.91952206 531.06854938 -226.2730757 532.07083655 -206.48828125 533.484375 C-205.76696518 533.53727188 -205.04564911 533.59016876 -204.30247498 533.64466858 C-199.19238757 533.99202783 -194.1218563 534.0415822 -189 534 C-189.3853894 532.94256592 -189.3853894 532.94256592 -189.77856445 531.86376953 C-190.95943857 528.61855841 -192.13599227 525.37179652 -193.3125 522.125 C-193.71662109 521.01640625 -194.12074219 519.9078125 -194.53710938 518.765625 C-210.38206472 474.96656144 -214.11584542 429.76394139 -206 384 C-205.79165527 382.71464355 -205.79165527 382.71464355 -205.57910156 381.40332031 C-196.80150893 327.33066954 -165.08803568 277.96435682 -129.84375 237.31640625 C-127.28138467 234.35067391 -124.82143036 231.31234505 -122.375 228.25 C-118.63021715 223.63007768 -114.57116899 219.46976603 -110.3203125 215.31640625 C-108.3562481 213.35564835 -106.53940999 211.36761835 -104.75 209.25 C-100.83916666 204.66873808 -96.53856413 200.48512068 -92.23730469 196.27441406 C-88.57041113 192.66111198 -85.13563037 188.91878498 -81.77246094 185.02197266 C-78.81946629 181.65328097 -75.71217405 178.43269319 -72.625 175.1875 C-66.79401797 169.00050915 -61.21355108 162.72273691 -56 156 C-55.33436035 155.15912842 -55.33436035 155.15912842 -54.65527344 154.30126953 C-39.80783611 135.50355053 -27.94057556 114.74561856 -19.32421875 92.40234375 C-18.46093344 90.18428621 -17.5371941 87.98854517 -16.546875 85.82421875 C-7.00263829 63.71191994 -4.01610765 38.09198117 -1.95019531 14.3059082 C-1.83901367 13.02804443 -1.72783203 11.75018066 -1.61328125 10.43359375 C-1.51829346 9.28947021 -1.42330566 8.14534668 -1.32543945 6.96655273 C-1.05913882 4.53908158 -0.67587442 2.33929036 0 0 Z " fill="#FEFEFE" transform="translate(475,146)"/>
<path d="M0 0 C1.55847656 0.72703125 1.55847656 0.72703125 3.1484375 1.46875 C19.3927943 9.98764148 29.66001502 24.51060489 35.19287109 41.71679688 C36.58620185 47.38452584 36.63562835 52.93849391 36.5625 58.75 C36.55226807 59.97775146 36.54203613 61.20550293 36.53149414 62.47045898 C36.10771372 80.65219976 30.07749147 94.89664282 16.8359375 107.62890625 C4.43163097 118 4.43163097 118 -1 118 C-1 155.29 -1 192.58 -1 231 C-17.83 231 -34.66 231 -52 231 C-51.97679687 223.35714844 -51.95359375 215.71429687 -51.9296875 207.83984375 C-51.9194674 202.99543931 -51.90983937 198.15104818 -51.90234375 193.30664062 C-51.89039228 185.61886837 -51.87625946 177.9311438 -51.84912109 170.2434082 C-51.82737665 164.0448053 -51.81542793 157.84625354 -51.81024551 151.64761543 C-51.80655266 149.28376015 -51.79934146 146.91990763 -51.78853989 144.55607414 C-51.7740039 141.2429692 -51.77202297 137.9300751 -51.77294922 134.61694336 C-51.76575867 133.64158127 -51.75856812 132.66621918 -51.75115967 131.66130066 C-51.76706017 126.39875894 -52.07165331 121.92752005 -54 117 C-56.74549755 114.90683085 -56.74549755 114.90683085 -60.125 113.5 C-73.86118228 106.67729272 -81.48521368 96.18357713 -87 82 C-87.39058594 81.06849121 -87.39058594 81.06849121 -87.7890625 80.11816406 C-90.36122123 73.4152409 -90.53982012 66.9998147 -90.5 59.875 C-90.49355469 58.67665527 -90.48710937 57.47831055 -90.48046875 56.24365234 C-90.17329531 41.33159441 -85.45305915 30.10478071 -77 18 C-76.54109375 17.32453125 -76.0821875 16.6490625 -75.609375 15.953125 C-58.82708515 -6.0862677 -24.04816593 -11.46822512 0 0 Z " fill="#FEFEFE" transform="translate(570,772)"/>
<path d="M0 0 C0.99 0.495 0.99 0.495 2 1 C-9.43949177 13.52332223 -21.40207258 25.48954994 -33.4375 37.4375 C-37.16849824 41.14139385 -40.89569743 44.84906319 -44.62109375 48.55859375 C-45.45974472 49.38894638 -46.29839569 50.21929901 -47.16246033 51.07481384 C-51.44267578 55.33724849 -55.56862543 59.66525512 -59.49330139 64.25843811 C-62.45340117 67.67995648 -65.39055405 71.07448061 -69.34509277 73.34855652 C-72.45471314 75.28284719 -74.76566499 77.51871632 -77.35351562 80.1105957 C-77.86315353 80.61833527 -78.37279144 81.12607483 -78.89787292 81.64920044 C-80.57224981 83.3198893 -82.23934299 84.99764197 -83.90625 86.67578125 C-85.07503335 87.84575802 -86.24418805 89.01536392 -87.41369629 90.18461609 C-89.8611043 92.63358576 -92.3051247 95.08586961 -94.74658203 97.54077148 C-97.86505287 100.67620323 -100.99003678 103.80504108 -104.11737823 106.93162251 C-106.5318398 109.34635703 -108.94367827 111.76369724 -111.35466003 114.18190575 C-112.50543569 115.33584804 -113.65680429 116.48919935 -114.80879211 117.64193153 C-116.42387919 119.25920519 -118.03562097 120.8797414 -119.64648438 122.5012207 C-120.5618396 123.42038773 -121.47719482 124.33955475 -122.42028809 125.28657532 C-124.2619566 127.22370201 -125.98328003 129.14279373 -127.67834473 131.19914246 C-131.29907028 135.56720545 -134.24379517 138.34214802 -140 139 C-133.40796374 130.71286871 -125.3807757 123.76137455 -117.36694336 116.88061523 C-112.62031106 112.72904516 -108.16690153 108.31081662 -103.71484375 103.84765625 C-102.424963 102.55921059 -102.424963 102.55921059 -101.10902405 101.24473572 C-99.30184139 99.43822985 -97.49590608 97.63047538 -95.69116211 95.8215332 C-92.94561607 93.0706319 -90.19477454 90.32510779 -87.44335938 87.58007812 C-85.6793668 85.81542468 -83.9156845 84.05046103 -82.15234375 82.28515625 C-80.93175514 81.06760399 -80.93175514 81.06760399 -79.68650818 79.82545471 C-75.43781189 75.55946608 -71.34089504 71.2199256 -67.41967773 66.65016174 C-65.70219853 64.6538506 -63.91432205 62.74708268 -62.0625 60.875 C-61.47597656 60.27429688 -60.88945313 59.67359375 -60.28515625 59.0546875 C-58.40931175 57.36803074 -56.58133472 55.98198061 -54.53125 54.53125 C-48.87580534 50.34683689 -44.03326153 45.2952081 -39.09985352 40.30566406 C-37.4427218 38.63027932 -35.77773144 36.963033 -34.11132812 35.296875 C-29.14479967 30.31341082 -24.28793809 25.28610917 -19.71459961 19.93505859 C-16.18162746 15.94782561 -12.34774118 12.24558918 -8.5625 8.5 C-7.73556641 7.67757813 -6.90863281 6.85515625 -6.05664062 6.0078125 C-4.04005041 4.00287887 -2.02114764 2.00033747 0 0 Z " fill="#5CBEEC" transform="translate(186,266)"/>
<path d="M0 0 C0.99 0.495 0.99 0.495 2 1 C1.32205887 1.67572052 0.64411774 2.35144104 -0.05436707 3.04763794 C-6.45697413 9.42993387 -12.8569091 15.81489861 -19.25426769 22.20245552 C-22.54293751 25.48591674 -25.83252688 28.76844532 -29.12426758 32.04882812 C-32.303591 35.21725063 -35.48043354 38.38814147 -38.65560341 41.56072617 C-39.86470644 42.76798791 -41.07468625 43.97437221 -42.28557396 45.1798439 C-43.98725887 46.87422271 -45.68574051 48.57175358 -47.38354492 50.27001953 C-47.87985916 50.76273849 -48.3761734 51.25545746 -48.88752747 51.7631073 C-51.27603525 54.15860621 -53.54447903 56.60514253 -55.69477844 59.21359253 C-59.30630307 63.57897736 -62.25314952 66.34321709 -68 67 C-61.93094413 59.37032976 -54.65089446 52.84041806 -47.2593689 46.50901794 C-41.65978762 41.7094489 -36.44733917 36.57635002 -31.25 31.34765625 C-30.35128174 30.44752304 -29.45256348 29.54738983 -28.52661133 28.61997986 C-26.16413425 26.25288737 -23.80384888 23.88365361 -21.44464111 21.51330566 C-19.02614819 19.08449258 -16.60474054 16.65858897 -14.18359375 14.23242188 C-9.45307046 9.49092631 -4.72542027 4.74658102 0 0 Z " fill="#44B5EA" transform="translate(114,338)"/>
<path d="M0 0 C0.66 0.33 1.32 0.66 2 1 C-4.47878235 7.52504513 -10.96289425 14.04473254 -17.45394707 20.55757141 C-20.46756693 23.58164545 -23.47929133 26.6075588 -26.48681641 29.63769531 C-29.38723965 32.55978875 -32.29246732 35.47702362 -35.20114517 38.39089966 C-36.31211351 39.50557425 -37.42131495 40.62201266 -38.52874374 41.74020386 C-40.07561036 43.30150799 -41.62854093 44.85652212 -43.18310547 46.41015625 C-44.06690887 47.29840088 -44.95071228 48.18664551 -45.86129761 49.10180664 C-48 51 -48 51 -50 51 C-50 51.66 -50 52.32 -50 53 C-50.99 52.67 -51.98 52.34 -53 52 C-52.34 52 -51.68 52 -51 52 C-50.67 51.01 -50.34 50.02 -50 49 C-48.64453125 47.66796875 -48.64453125 47.66796875 -46.8125 46.1875 C-38.09601027 38.79264409 -29.97043319 30.49594778 -22.56640625 21.79296875 C-17.7501189 16.28006129 -12.37426836 11.37548029 -6.83203125 6.609375 C-4.43948191 4.50760458 -2.21633026 2.28559058 0 0 Z " fill="#5ABEEC" transform="translate(397,60)"/>
<path d="M0 0 C0.66 0.33 1.32 0.66 2 1 C1.401875 1.556875 0.80375 2.11375 0.1875 2.6875 C-2.03714774 4.84787303 -2.03714774 4.84787303 -3.25 7.25 C-5.86267287 11.3556288 -9.07329156 15.1017152 -13 18 C-15.7578125 18.23046875 -15.7578125 18.23046875 -18 18 C-12.63343156 11.29178945 -6.38332373 5.71193855 0 0 Z " fill="#62BFEC" transform="translate(442,16)"/>
<path d="M0 0 C0.33 0.99 0.66 1.98 1 3 C-10.40669014 16.24647887 -10.40669014 16.24647887 -17 17 C-11.90499173 10.6656654 -6.07469335 5.37210426 0 0 Z " fill="#61BDEA" transform="translate(63,388)"/>
</svg>
